<svg width="147" height="59" viewBox="0 0 147 59" fill="none" xmlns="http://www.w3.org/2000/svg">
<path d="M78.3817 45.9998C80.559 41.6665 81.4969 34.8998 67.8303 42.4998C50.7471 51.9998 51.2496 55.9998 56.7765 57.4998C62.3034 58.9998 69.3377 55.9998 69.8401 55.9998M76.3719 54.4998C75.97 51.2998 77.2093 51.1665 77.8793 51.4998L78.3817 52.4998M76.3719 54.4998C77.3768 54.4998 78.3817 55.9998 76.3719 56.4998C74.3621 56.9998 75.4011 53.9998 76.3719 54.4998ZM79.8891 52.4998C79.4003 54.2831 79.4526 56.4153 82.4013 52.4998M82.4013 52.4998C82.484 52.3899 82.3135 52.6199 82.4013 52.4998ZM82.4013 52.4998L82.9037 54.9998C83.5737 55.6665 85.6169 54.7998 88.4307 45.9998M85.416 53.9998C85.7509 54.8332 86.8228 55.9998 88.4307 53.9998C90.0385 51.9998 90.1055 52.1665 89.938 52.4998C90.273 52.3332 90.9429 52.3998 90.9429 53.9998C90.9429 55.5998 89.2681 55.3332 88.4307 54.9998M75.4966 54.9028L73.9529 54.4039M76.8744 54.4998L79.8005 52.8447M71.8499 54.4998C72.0174 53.4998 72.2519 51.5998 73.8597 51.9998C75.4675 52.3998 74.5296 53.8332 73.8597 54.4998H71.8499Z" stroke="black"/>
<path d="M82.2968 52.3073C82.3022 52.3073 82.3131 52.3046 82.3295 52.2979C82.338 52.2943 82.3458 52.2884 82.3378 52.2856C82.3298 52.2829 82.3055 52.2829 82.2903 52.2869C82.2487 52.2979 82.2314 52.3236 82.2231 52.325C82.1745 52.3329 82.354 52.3425 82.4004 52.3508C82.4209 52.3544 82.436 52.3671 82.451 52.3671C82.4584 52.3671 82.4633 52.3564 82.4701 52.3549C82.5022 52.3481 82.5234 52.3805 82.5507 52.4051C82.5652 52.4182 82.5835 52.4295 82.5958 52.4377C82.5992 52.44 82.6 52.4298 82.5959 52.4243C82.5764 52.3978 82.54 52.3809 82.5113 52.3617C82.504 52.3569 82.499 52.3483 82.4949 52.3481C82.4907 52.348 82.488 52.3561 82.4921 52.3643C82.512 52.4049 82.5588 52.4213 82.5699 52.454C82.582 52.4898 82.6054 52.5191 82.6272 52.5478C82.6389 52.5632 82.6627 52.56 82.6736 52.5763C82.694 52.6066 82.6928 52.6334 82.6955 52.6416C82.7037 52.6659 82.6819 52.5847 82.6683 52.5385C82.6655 52.5222 82.6655 52.5007 82.6574 52.4896C82.6493 52.4785 82.6331 52.4785 82.6081 52.4867" stroke="black" stroke-width="0.5" stroke-linecap="round"/>
<mask id="path-3-outside-1_1271_7655" maskUnits="userSpaceOnUse" x="1" y="9" width="142" height="30" fill="black">
<rect fill="white" x="1" y="9" width="142" height="30"/>
<path d="M29 36.76V38H18.6V36.76H21.8L19.08 28.88H9.44L7.92 32.48C7.44 33.7067 7.2 34.6133 7.2 35.2C7.2 35.76 7.28 36.16 7.44 36.4C7.6 36.64 8.44 36.76 9.96 36.76V38H1.24V36.76C2.62667 36.7867 3.62667 36.6133 4.24 36.24C4.88 35.84 5.57333 34.5867 6.32 32.48L15 9.68H16.6L26.04 36.76H29ZM10 27.36H18.52L14.56 15.64L10 27.36ZM58.1219 32.88L58.6819 33.52C57.2685 35.4933 55.7619 36.84 54.1619 37.56C52.5619 38.28 50.6019 38.64 48.2819 38.64C44.8685 38.64 41.9619 37.24 39.5619 34.44C37.1619 31.5867 35.9752 28.0933 36.0019 23.96C36.0552 19.8 37.2552 16.4133 39.6019 13.8C41.9485 11.16 44.8419 9.84 48.2819 9.84C50.4685 9.84 52.0552 9.94666 53.0419 10.16C54.0285 10.3467 55.2152 10.7067 56.6019 11.24V17.52H55.4019C55.2152 15.1733 54.5885 13.48 53.5219 12.44C52.4552 11.3733 50.7485 10.8933 48.4019 11C43.2285 11.24 40.6419 15.6533 40.6419 24.24C40.6419 28.0267 41.3085 31.1333 42.6419 33.56C44.0285 35.96 45.8419 37.1867 48.0819 37.24C50.3219 37.2667 52.1619 36.9467 53.6019 36.28C55.0419 35.5867 56.5485 34.4533 58.1219 32.88ZM86.6978 13.72C88.8845 16.3333 89.9778 19.76 89.9778 24C89.9778 28.2133 88.8311 31.6933 86.5378 34.44C84.2445 37.1867 81.3778 38.56 77.9378 38.56C74.5245 38.56 71.5911 37.16 69.1378 34.36C66.7378 31.5333 65.5645 28.0533 65.6178 23.92C65.6711 19.76 66.8445 16.36 69.1378 13.72C71.4578 11.0533 74.4178 9.72 78.0178 9.72C81.6445 9.72 84.5378 11.0533 86.6978 13.72ZM77.9778 37.16C80.4578 37.16 82.3378 35.9733 83.6178 33.6C84.8978 31.2267 85.5378 28.08 85.5378 24.16C85.5378 20.2133 84.9778 17.12 83.8578 14.88C82.5245 12.2667 80.4711 10.96 77.6978 10.96C74.9511 10.96 72.9378 12.2 71.6578 14.68C70.5911 16.7867 70.0578 19.9333 70.0578 24.12C70.0578 32.8133 72.6978 37.16 77.9778 37.16ZM114.209 29.2C114.209 32.2933 112.969 34.6533 110.489 36.28C108.355 37.6933 105.675 38.4 102.449 38.4C100.502 38.4 98.3287 37.9467 95.9287 37.04L95.9687 30.68H97.1687C97.3287 32.7867 97.9554 34.3067 99.0487 35.24C99.5554 35.6667 100.302 36.0267 101.289 36.32C102.275 36.6133 103.169 36.7467 103.969 36.72C105.809 36.6933 107.422 36.2 108.809 35.24C110.169 34.2533 110.875 32.9333 110.929 31.28C110.929 29.5467 110.315 28.16 109.089 27.12C107.889 26.08 106.222 25.44 104.089 25.2C98.4087 24.5067 95.5687 22.1333 95.5687 18.08C95.5687 15.2533 96.6487 13.1067 98.8087 11.64C100.649 10.36 102.889 9.72 105.529 9.72C106.302 9.72 107.222 9.84 108.289 10.08C109.355 10.2933 110.035 10.4 110.329 10.4C110.649 10.4 110.862 10.2 110.969 9.8H112.089V16.96H110.889C110.702 14.9867 110.102 13.56 109.089 12.68C108.102 11.8 106.622 11.3733 104.649 11.4C100.755 11.4533 98.8354 13.2 98.8887 16.64C98.9421 19.7067 101.075 21.4533 105.289 21.88C111.235 22.52 114.209 24.96 114.209 29.2ZM141.517 28.44H142.797L142.357 38H119.117V36.76H122.877V11.68H119.117V10.44H141.717L141.797 18.56H140.557C140.37 16.24 139.73 14.5467 138.637 13.48C137.543 12.3867 135.757 11.8133 133.277 11.76L126.437 11.68V23.28H131.317C132.463 23.28 133.317 22.9467 133.877 22.28C134.49 21.4267 134.797 20.1867 134.797 18.56H136.037V29.64H134.797C134.797 28.0667 134.463 26.84 133.797 25.96C133.157 25.08 132.33 24.64 131.317 24.64H126.437V36.76L133.917 36.64C134.663 36.64 135.557 36.44 136.597 36.04C137.663 35.64 138.45 35.1867 138.957 34.68C140.557 33.1867 141.41 31.1067 141.517 28.44Z"/>
</mask>
<path d="M29 36.76V38H18.6V36.76H21.8L19.08 28.88H9.44L7.92 32.48C7.44 33.7067 7.2 34.6133 7.2 35.2C7.2 35.76 7.28 36.16 7.44 36.4C7.6 36.64 8.44 36.76 9.96 36.76V38H1.24V36.76C2.62667 36.7867 3.62667 36.6133 4.24 36.24C4.88 35.84 5.57333 34.5867 6.32 32.48L15 9.68H16.6L26.04 36.76H29ZM10 27.36H18.52L14.56 15.64L10 27.36ZM58.1219 32.88L58.6819 33.52C57.2685 35.4933 55.7619 36.84 54.1619 37.56C52.5619 38.28 50.6019 38.64 48.2819 38.64C44.8685 38.64 41.9619 37.24 39.5619 34.44C37.1619 31.5867 35.9752 28.0933 36.0019 23.96C36.0552 19.8 37.2552 16.4133 39.6019 13.8C41.9485 11.16 44.8419 9.84 48.2819 9.84C50.4685 9.84 52.0552 9.94666 53.0419 10.16C54.0285 10.3467 55.2152 10.7067 56.6019 11.24V17.52H55.4019C55.2152 15.1733 54.5885 13.48 53.5219 12.44C52.4552 11.3733 50.7485 10.8933 48.4019 11C43.2285 11.24 40.6419 15.6533 40.6419 24.24C40.6419 28.0267 41.3085 31.1333 42.6419 33.56C44.0285 35.96 45.8419 37.1867 48.0819 37.24C50.3219 37.2667 52.1619 36.9467 53.6019 36.28C55.0419 35.5867 56.5485 34.4533 58.1219 32.88ZM86.6978 13.72C88.8845 16.3333 89.9778 19.76 89.9778 24C89.9778 28.2133 88.8311 31.6933 86.5378 34.44C84.2445 37.1867 81.3778 38.56 77.9378 38.56C74.5245 38.56 71.5911 37.16 69.1378 34.36C66.7378 31.5333 65.5645 28.0533 65.6178 23.92C65.6711 19.76 66.8445 16.36 69.1378 13.72C71.4578 11.0533 74.4178 9.72 78.0178 9.72C81.6445 9.72 84.5378 11.0533 86.6978 13.72ZM77.9778 37.16C80.4578 37.16 82.3378 35.9733 83.6178 33.6C84.8978 31.2267 85.5378 28.08 85.5378 24.16C85.5378 20.2133 84.9778 17.12 83.8578 14.88C82.5245 12.2667 80.4711 10.96 77.6978 10.96C74.9511 10.96 72.9378 12.2 71.6578 14.68C70.5911 16.7867 70.0578 19.9333 70.0578 24.12C70.0578 32.8133 72.6978 37.16 77.9778 37.16ZM114.209 29.2C114.209 32.2933 112.969 34.6533 110.489 36.28C108.355 37.6933 105.675 38.4 102.449 38.4C100.502 38.4 98.3287 37.9467 95.9287 37.04L95.9687 30.68H97.1687C97.3287 32.7867 97.9554 34.3067 99.0487 35.24C99.5554 35.6667 100.302 36.0267 101.289 36.32C102.275 36.6133 103.169 36.7467 103.969 36.72C105.809 36.6933 107.422 36.2 108.809 35.24C110.169 34.2533 110.875 32.9333 110.929 31.28C110.929 29.5467 110.315 28.16 109.089 27.12C107.889 26.08 106.222 25.44 104.089 25.2C98.4087 24.5067 95.5687 22.1333 95.5687 18.08C95.5687 15.2533 96.6487 13.1067 98.8087 11.64C100.649 10.36 102.889 9.72 105.529 9.72C106.302 9.72 107.222 9.84 108.289 10.08C109.355 10.2933 110.035 10.4 110.329 10.4C110.649 10.4 110.862 10.2 110.969 9.8H112.089V16.96H110.889C110.702 14.9867 110.102 13.56 109.089 12.68C108.102 11.8 106.622 11.3733 104.649 11.4C100.755 11.4533 98.8354 13.2 98.8887 16.64C98.9421 19.7067 101.075 21.4533 105.289 21.88C111.235 22.52 114.209 24.96 114.209 29.2ZM141.517 28.44H142.797L142.357 38H119.117V36.76H122.877V11.68H119.117V10.44H141.717L141.797 18.56H140.557C140.37 16.24 139.73 14.5467 138.637 13.48C137.543 12.3867 135.757 11.8133 133.277 11.76L126.437 11.68V23.28H131.317C132.463 23.28 133.317 22.9467 133.877 22.28C134.49 21.4267 134.797 20.1867 134.797 18.56H136.037V29.64H134.797C134.797 28.0667 134.463 26.84 133.797 25.96C133.157 25.08 132.33 24.64 131.317 24.64H126.437V36.76L133.917 36.64C134.663 36.64 135.557 36.44 136.597 36.04C137.663 35.64 138.45 35.1867 138.957 34.68C140.557 33.1867 141.41 31.1067 141.517 28.44Z" fill="black"/>
<path d="M29 36.76H29.1V36.66H29V36.76ZM29 38V38.1H29.1V38H29ZM18.6 38H18.5V38.1H18.6V38ZM18.6 36.76V36.66H18.5V36.76H18.6ZM21.8 36.76V36.86H21.9403L21.8945 36.7274L21.8 36.76ZM19.08 28.88L19.1745 28.8474L19.1513 28.78H19.08V28.88ZM9.44 28.88V28.78H9.37367L9.34788 28.8411L9.44 28.88ZM7.92 32.48L7.82784 32.4411L7.82688 32.4436L7.92 32.48ZM7.44 36.4L7.52321 36.3445V36.3445L7.44 36.4ZM9.96 36.76H10.06V36.66H9.96V36.76ZM9.96 38V38.1H10.06V38H9.96ZM1.24 38H1.14V38.1H1.24V38ZM1.24 36.76L1.24192 36.66L1.14 36.6581V36.76H1.24ZM4.24 36.24L4.292 36.3254L4.293 36.3248L4.24 36.24ZM6.32 32.48L6.22652 32.4444L6.22575 32.4466L6.32 32.48ZM15 9.68V9.58H14.9311L14.9065 9.64442L15 9.68ZM16.6 9.68L16.6944 9.64708L16.671 9.58H16.6V9.68ZM26.04 36.76L25.9456 36.7929L25.969 36.86H26.04V36.76ZM10 27.36L9.90681 27.3237L9.85379 27.46H10V27.36ZM18.52 27.36V27.46H18.6593L18.6147 27.328L18.52 27.36ZM14.56 15.64L14.6547 15.608L14.5666 15.3472L14.4668 15.6037L14.56 15.64ZM29 36.76H28.9V38H29H29.1V36.76H29ZM29 38V37.9H18.6V38V38.1H29V38ZM18.6 38H18.7V36.76H18.6H18.5V38H18.6ZM18.6 36.76V36.86H21.8V36.76V36.66H18.6V36.76ZM21.8 36.76L21.8945 36.7274L19.1745 28.8474L19.08 28.88L18.9855 28.9126L21.7055 36.7926L21.8 36.76ZM19.08 28.88V28.78H9.44V28.88V28.98H19.08V28.88ZM9.44 28.88L9.34788 28.8411L7.82788 32.4411L7.92 32.48L8.01213 32.5189L9.53213 28.9189L9.44 28.88ZM7.92 32.48L7.82688 32.4436C7.34659 33.671 7.1 34.5929 7.1 35.2H7.2H7.3C7.3 34.6337 7.53341 33.7424 8.01312 32.5164L7.92 32.48ZM7.2 35.2H7.1C7.1 35.7642 7.17958 36.1896 7.3568 36.4555L7.44 36.4L7.52321 36.3445C7.38042 36.1304 7.3 35.7558 7.3 35.2H7.2ZM7.44 36.4L7.3568 36.4555C7.41514 36.543 7.52322 36.6046 7.65363 36.6516C7.78764 36.6998 7.9626 36.7385 8.17586 36.769C8.60283 36.83 9.19834 36.86 9.96 36.86V36.76V36.66C9.20166 36.66 8.61717 36.63 8.20414 36.571C7.9974 36.5415 7.83736 36.5052 7.72137 36.4634C7.60178 36.4204 7.54487 36.377 7.52321 36.3445L7.44 36.4ZM9.96 36.76H9.86V38H9.96H10.06V36.76H9.96ZM9.96 38V37.9H1.24V38V38.1H9.96V38ZM1.24 38H1.34V36.76H1.24H1.14V38H1.24ZM1.24 36.76L1.23808 36.86C2.62893 36.8867 3.65325 36.7142 4.292 36.3254L4.24 36.24L4.18801 36.1546C3.60008 36.5124 2.6244 36.6866 1.24192 36.66L1.24 36.76ZM4.24 36.24L4.293 36.3248C4.6353 36.1109 4.97877 35.6788 5.3275 35.0484C5.67787 34.4151 6.03998 33.5694 6.41426 32.5134L6.32 32.48L6.22575 32.4466C5.85335 33.4973 5.49546 34.3316 5.1525 34.9516C4.8079 35.5745 4.4847 35.9691 4.187 36.1552L4.24 36.24ZM6.32 32.48L6.41346 32.5156L15.0935 9.71558L15 9.68L14.9065 9.64442L6.22654 32.4444L6.32 32.48ZM15 9.68V9.78H16.6V9.68V9.58H15V9.68ZM16.6 9.68L16.5056 9.71292L25.9456 36.7929L26.04 36.76L26.1344 36.7271L16.6944 9.64708L16.6 9.68ZM26.04 36.76V36.86H29V36.76V36.66H26.04V36.76ZM10 27.36V27.46H18.52V27.36V27.26H10V27.36ZM18.52 27.36L18.6147 27.328L14.6547 15.608L14.56 15.64L14.4653 15.672L18.4253 27.392L18.52 27.36ZM14.56 15.64L14.4668 15.6037L9.90681 27.3237L10 27.36L10.0932 27.3963L14.6532 15.6763L14.56 15.64ZM58.1219 32.88L58.1971 32.8141L58.1267 32.7337L58.0512 32.8093L58.1219 32.88ZM58.6819 33.52L58.7632 33.5782L58.8093 33.5138L58.7571 33.4541L58.6819 33.52ZM54.1619 37.56L54.2029 37.6512V37.6512L54.1619 37.56ZM39.5619 34.44L39.4853 34.5044L39.486 34.5051L39.5619 34.44ZM36.0019 23.96L35.9019 23.9587L35.9019 23.9594L36.0019 23.96ZM39.6019 13.8L39.6763 13.8668L39.6766 13.8664L39.6019 13.8ZM53.0419 10.16L53.0207 10.2578L53.0233 10.2583L53.0419 10.16ZM56.6019 11.24H56.7019V11.1713L56.6378 11.1467L56.6019 11.24ZM56.6019 17.52V17.62H56.7019V17.52H56.6019ZM55.4019 17.52L55.3022 17.5279L55.3095 17.62H55.4019V17.52ZM53.5219 12.44L53.4512 12.5107L53.4521 12.5116L53.5219 12.44ZM48.4019 11L48.3973 10.9001L48.3972 10.9001L48.4019 11ZM42.6419 33.56L42.5542 33.6082L42.5553 33.61L42.6419 33.56ZM48.0819 37.24L48.0795 37.34L48.0807 37.34L48.0819 37.24ZM53.6019 36.28L53.6439 36.3708L53.6453 36.3701L53.6019 36.28ZM58.1219 32.88L58.0466 32.9459L58.6066 33.5858L58.6819 33.52L58.7571 33.4541L58.1971 32.8141L58.1219 32.88ZM58.6819 33.52L58.6006 33.4618C57.1938 35.426 55.6997 36.7583 54.1208 37.4688L54.1619 37.56L54.2029 37.6512C55.824 36.9217 57.3433 35.5607 58.7632 33.5782L58.6819 33.52ZM54.1619 37.56L54.1208 37.4688C52.5372 38.1814 50.5921 38.54 48.2819 38.54V38.64V38.74C50.6117 38.74 52.5866 38.3785 54.2029 37.6512L54.1619 37.56ZM48.2819 38.64V38.54C44.9003 38.54 42.0205 37.1548 39.6378 34.3749L39.5619 34.44L39.486 34.5051C41.9032 37.3252 44.8368 38.74 48.2819 38.74V38.64ZM39.5619 34.44L39.6384 34.3756C37.2554 31.5425 36.0753 28.073 36.1019 23.9606L36.0019 23.96L35.9019 23.9594C35.8751 28.1137 37.0684 31.6308 39.4853 34.5044L39.5619 34.44ZM36.0019 23.96L36.1019 23.9613C36.1549 19.8208 37.3487 16.4589 39.6763 13.8668L39.6019 13.8L39.5275 13.7332C37.1617 16.3678 35.9555 19.7792 35.9019 23.9587L36.0019 23.96ZM39.6019 13.8L39.6766 13.8664C42.0049 11.2471 44.8713 9.94 48.2819 9.94V9.84V9.74C44.8124 9.74 41.8922 11.0729 39.5271 13.7336L39.6019 13.8ZM48.2819 9.84V9.94C50.4677 9.94 52.0452 10.0468 53.0207 10.2577L53.0419 10.16L53.063 10.0623C52.0652 9.84651 50.4694 9.74 48.2819 9.74V9.84ZM53.0419 10.16L53.0233 10.2583C54.002 10.4434 55.1825 10.8012 56.566 11.3333L56.6019 11.24L56.6378 11.1467C55.2479 10.6121 54.0551 10.2499 53.0605 10.0617L53.0419 10.16ZM56.6019 11.24H56.5019V17.52H56.6019H56.7019V11.24H56.6019ZM56.6019 17.52V17.42H55.4019V17.52V17.62H56.6019V17.52ZM55.4019 17.52L55.5016 17.5121C55.314 15.1546 54.6833 13.4327 53.5917 12.3684L53.5219 12.44L53.4521 12.5116C54.4938 13.5273 55.1164 15.1921 55.3022 17.5279L55.4019 17.52ZM53.5219 12.44L53.5926 12.3693C52.4973 11.274 50.7566 10.7929 48.3973 10.9001L48.4019 11L48.4064 11.0999C50.7405 10.9938 52.4132 11.4727 53.4512 12.5107L53.5219 12.44ZM48.4019 11L48.3972 10.9001C45.7773 11.0217 43.8063 12.2031 42.4956 14.4394C41.1891 16.6686 40.5419 19.9396 40.5419 24.24H40.6419H40.7419C40.7419 19.9538 41.388 16.7248 42.6681 14.5406C43.9441 12.3635 45.8531 11.2183 48.4065 11.0999L48.4019 11ZM40.6419 24.24H40.5419C40.5419 28.0376 41.2104 31.1623 42.5542 33.6082L42.6419 33.56L42.7295 33.5118C41.4067 31.1044 40.7419 28.0157 40.7419 24.24H40.6419ZM42.6419 33.56L42.5553 33.61C43.9546 36.0319 45.796 37.2856 48.0795 37.34L48.0819 37.24L48.0843 37.14C45.8877 37.0877 44.1025 35.8881 42.7285 33.51L42.6419 33.56ZM48.0819 37.24L48.0807 37.34C50.3299 37.3668 52.186 37.0457 53.6439 36.3707L53.6019 36.28L53.5599 36.1893C52.1378 36.8476 50.3139 37.1666 48.0831 37.14L48.0819 37.24ZM53.6019 36.28L53.6453 36.3701C55.0985 35.6704 56.6142 34.5291 58.1926 32.9507L58.1219 32.88L58.0512 32.8093C56.4829 34.3775 54.9852 35.5029 53.5585 36.1899L53.6019 36.28ZM86.6978 13.72L86.6201 13.7829L86.6211 13.7842L86.6978 13.72ZM86.5378 34.44L86.4611 34.3759V34.3759L86.5378 34.44ZM69.1378 34.36L69.0616 34.4247L69.0626 34.4259L69.1378 34.36ZM65.6178 23.92L65.7178 23.9213V23.9213L65.6178 23.92ZM69.1378 13.72L69.0624 13.6544L69.0623 13.6544L69.1378 13.72ZM83.6178 33.6L83.5298 33.5525V33.5525L83.6178 33.6ZM83.8578 14.88L83.9473 14.8353L83.9469 14.8346L83.8578 14.88ZM71.6578 14.68L71.5689 14.6341L71.5686 14.6348L71.6578 14.68ZM86.6978 13.72L86.6211 13.7842C88.7893 16.3754 89.8778 19.7776 89.8778 24H89.9778H90.0778C90.0778 19.7424 88.9796 16.2912 86.7745 13.6558L86.6978 13.72ZM89.9778 24H89.8778C89.8778 28.1943 88.7368 31.6503 86.4611 34.3759L86.5378 34.44L86.6146 34.5041C88.9255 31.7364 90.0778 28.2324 90.0778 24H89.9778ZM86.5378 34.44L86.4611 34.3759C84.1858 37.1009 81.3468 38.46 77.9378 38.46V38.56V38.66C81.4088 38.66 84.3031 37.2725 86.6146 34.5041L86.5378 34.44ZM77.9378 38.56V38.46C74.5561 38.46 71.6493 37.0746 69.213 34.2941L69.1378 34.36L69.0626 34.4259C71.533 37.2454 74.4929 38.66 77.9378 38.66V38.56ZM69.1378 34.36L69.214 34.2953C66.8315 31.4892 65.6647 28.0334 65.7178 23.9213L65.6178 23.92L65.5178 23.9187C65.4642 28.0732 66.6441 31.5775 69.0616 34.4247L69.1378 34.36ZM65.6178 23.92L65.7178 23.9213C65.7709 19.7802 66.9383 16.4045 69.2133 13.7856L69.1378 13.72L69.0623 13.6544C66.7506 16.3155 65.5714 19.7398 65.5178 23.9187L65.6178 23.92ZM69.1378 13.72L69.2133 13.7856C71.5139 11.1413 74.4461 9.82 78.0178 9.82V9.72V9.62C74.3895 9.62 71.4018 10.9654 69.0624 13.6544L69.1378 13.72ZM78.0178 9.72V9.82C81.6163 9.82 84.4803 11.1412 86.6201 13.7829L86.6978 13.72L86.7755 13.6571C84.5953 10.9655 81.6727 9.62 78.0178 9.62V9.72ZM77.9778 37.16V37.26C79.2345 37.26 80.3434 36.9591 81.3012 36.3546C82.2585 35.7503 83.0594 34.8461 83.7058 33.6475L83.6178 33.6L83.5298 33.5525C82.8962 34.7273 82.1171 35.6031 81.1944 36.1854C80.2722 36.7675 79.2012 37.06 77.9778 37.06V37.16ZM83.6178 33.6L83.7058 33.6475C84.9965 31.2544 85.6378 28.0896 85.6378 24.16H85.5378H85.4378C85.4378 28.0704 84.7992 31.1989 83.5298 33.5525L83.6178 33.6ZM85.5378 24.16H85.6378C85.6378 20.2058 85.0771 17.0949 83.9473 14.8353L83.8578 14.88L83.7684 14.9247C84.8786 17.1451 85.4378 20.2208 85.4378 24.16H85.5378ZM83.8578 14.88L83.9469 14.8346C83.2738 13.5153 82.416 12.5203 81.3715 11.8556C80.3266 11.1907 79.1008 10.86 77.6978 10.86V10.96V11.06C79.0682 11.06 80.2557 11.3826 81.2641 12.0244C82.2729 12.6663 83.1085 13.6314 83.7687 14.9254L83.8578 14.88ZM77.6978 10.96V10.86C76.309 10.86 75.1002 11.1737 74.0754 11.8049C73.0506 12.436 72.2158 13.3809 71.569 14.6341L71.6578 14.68L71.7467 14.7259C72.3799 13.4991 73.1917 12.584 74.1803 11.9751C75.1687 11.3663 76.34 11.06 77.6978 11.06V10.96ZM71.6578 14.68L71.5686 14.6348C70.4913 16.7625 69.9578 19.928 69.9578 24.12H70.0578H70.1578C70.1578 19.9387 70.691 16.8108 71.747 14.7252L71.6578 14.68ZM70.0578 24.12H69.9578C69.9578 28.4735 70.6183 31.7554 71.9523 33.9519C73.2913 36.1565 75.3045 37.26 77.9778 37.26V37.16V37.06C75.3711 37.06 73.4243 35.9902 72.1233 33.8481C70.8174 31.6979 70.1578 28.4598 70.1578 24.12H70.0578ZM110.489 36.28L110.434 36.1964L110.434 36.1966L110.489 36.28ZM95.9287 37.04L95.8288 37.0394L95.8283 37.109L95.8934 37.1335L95.9287 37.04ZM95.9688 30.68V30.58H95.8694L95.8688 30.6794L95.9688 30.68ZM97.1687 30.68L97.2685 30.6724L97.2614 30.58H97.1687V30.68ZM99.0488 35.24L98.9838 35.3161L98.9843 35.3165L99.0488 35.24ZM101.289 36.32L101.317 36.2241V36.2241L101.289 36.32ZM103.969 36.72L103.967 36.62L103.965 36.6201L103.969 36.72ZM108.809 35.24L108.866 35.3222L108.867 35.3209L108.809 35.24ZM110.929 31.28L111.029 31.2832V31.28H110.929ZM109.089 27.12L109.023 27.1956L109.024 27.1963L109.089 27.12ZM104.089 25.2L104.077 25.2993L104.078 25.2994L104.089 25.2ZM98.8087 11.64L98.8649 11.7227L98.8659 11.7221L98.8087 11.64ZM108.289 10.08L108.267 10.1776L108.269 10.1781L108.289 10.08ZM110.969 9.8V9.7H110.892L110.872 9.77423L110.969 9.8ZM112.089 9.8H112.189V9.7H112.089V9.8ZM112.089 16.96V17.06H112.189V16.96H112.089ZM110.889 16.96L110.789 16.9694L110.798 17.06H110.889V16.96ZM109.089 12.68L109.022 12.7546L109.023 12.7555L109.089 12.68ZM104.649 11.4L104.647 11.3H104.647L104.649 11.4ZM98.8887 16.64L98.7888 16.6415L98.7888 16.6417L98.8887 16.64ZM105.289 21.88L105.299 21.7806L105.299 21.7805L105.289 21.88ZM114.209 29.2H114.109C114.109 32.2614 112.884 34.5891 110.434 36.1964L110.489 36.28L110.544 36.3636C113.053 34.7175 114.309 32.3253 114.309 29.2H114.209ZM110.489 36.28L110.434 36.1966C108.32 37.5966 105.661 38.3 102.449 38.3V38.4V38.5C105.69 38.5 108.39 37.7901 110.544 36.3634L110.489 36.28ZM102.449 38.4V38.3C100.517 38.3 98.3562 37.8501 95.9641 36.9465L95.9287 37.04L95.8934 37.1335C98.3013 38.0432 100.487 38.5 102.449 38.5V38.4ZM95.9287 37.04L96.0287 37.0406L96.0687 30.6806L95.9688 30.68L95.8688 30.6794L95.8288 37.0394L95.9287 37.04ZM95.9688 30.68V30.78H97.1687V30.68V30.58H95.9688V30.68ZM97.1687 30.68L97.069 30.6876C97.2301 32.8084 97.8624 34.3587 98.9838 35.3161L99.0488 35.24L99.1137 35.1639C98.0484 34.2546 97.4274 32.765 97.2685 30.6724L97.1687 30.68ZM99.0488 35.24L98.9843 35.3165C99.5057 35.7555 100.267 36.1205 101.26 36.4159L101.289 36.32L101.317 36.2241C100.337 35.9328 99.6051 35.5778 99.1132 35.1635L99.0488 35.24ZM101.289 36.32L101.26 36.4159C102.254 36.7114 103.159 36.8471 103.972 36.8199L103.969 36.72L103.965 36.6201C103.179 36.6463 102.296 36.5152 101.317 36.2241L101.289 36.32ZM103.969 36.72L103.97 36.82C105.828 36.7931 107.461 36.2945 108.866 35.3222L108.809 35.24L108.752 35.1578C107.383 36.1055 105.789 36.5936 103.967 36.62L103.969 36.72ZM108.809 35.24L108.867 35.3209C110.252 34.3165 110.974 32.968 111.029 31.2832L110.929 31.28L110.829 31.2768C110.776 32.8987 110.085 34.1902 108.75 35.1591L108.809 35.24ZM110.929 31.28H111.029C111.029 29.5199 110.404 28.1043 109.153 27.0437L109.089 27.12L109.024 27.1963C110.226 28.2157 110.829 29.5735 110.829 31.28H110.929ZM109.089 27.12L109.154 27.0444C107.934 25.9873 106.246 25.3421 104.1 25.1006L104.089 25.2L104.078 25.2994C106.198 25.5379 107.843 26.1727 109.023 27.1956L109.089 27.12ZM104.089 25.2L104.101 25.1007C101.27 24.7552 99.162 23.9925 97.7629 22.8233C96.368 21.6576 95.6687 20.0802 95.6687 18.08H95.5687H95.4688C95.4688 20.1331 96.1895 21.7691 97.6346 22.9767C99.0754 24.1808 101.227 24.9514 104.077 25.2993L104.089 25.2ZM95.5687 18.08H95.6687C95.6687 15.2832 96.7349 13.169 98.8649 11.7227L98.8087 11.64L98.7526 11.5573C96.5626 13.0443 95.4688 15.2234 95.4688 18.08H95.5687ZM98.8087 11.64L98.8659 11.7221C100.686 10.4557 102.905 9.82 105.529 9.82V9.72V9.62C102.872 9.62 100.611 10.2643 98.7516 11.5579L98.8087 11.64ZM105.529 9.72V9.82C106.292 9.82 107.205 9.93857 108.267 10.1776L108.289 10.08L108.311 9.98244C107.24 9.74143 106.312 9.62 105.529 9.62V9.72ZM108.289 10.08L108.269 10.1781C109.333 10.3908 110.023 10.5 110.329 10.5V10.4V10.3C110.047 10.3 109.378 10.1959 108.308 9.98194L108.289 10.08ZM110.329 10.4V10.5C110.512 10.5 110.67 10.442 110.797 10.323C110.922 10.2059 111.009 10.0367 111.065 9.82576L110.969 9.8L110.872 9.77423C110.822 9.96333 110.749 10.0941 110.66 10.177C110.574 10.258 110.466 10.3 110.329 10.3V10.4ZM110.969 9.8V9.9H112.089V9.8V9.7H110.969V9.8ZM112.089 9.8H111.989V16.96H112.089H112.189V9.8H112.089ZM112.089 16.96V16.86H110.889V16.96V17.06H112.089V16.96ZM110.889 16.96L110.988 16.9506C110.8 14.9637 110.195 13.5079 109.154 12.6045L109.089 12.68L109.023 12.7555C110.01 13.6121 110.604 15.0096 110.789 16.9694L110.889 16.96ZM109.089 12.68L109.155 12.6054C108.143 11.7021 106.634 11.2732 104.647 11.3L104.649 11.4L104.65 11.5C106.61 11.4735 108.062 11.8979 109.022 12.7546L109.089 12.68ZM104.649 11.4L104.647 11.3C102.688 11.3268 101.207 11.7797 100.221 12.676C99.2339 13.5744 98.7618 14.9027 98.7888 16.6415L98.8887 16.64L98.9887 16.6384C98.9624 14.9373 99.4236 13.6722 100.356 12.824C101.291 11.9736 102.716 11.5265 104.65 11.5L104.649 11.4ZM98.8887 16.64L98.7888 16.6417C98.8159 18.2007 99.3733 19.4332 100.465 20.3274C101.553 21.2182 103.162 21.7652 105.279 21.9795L105.289 21.88L105.299 21.7805C103.202 21.5682 101.637 21.0285 100.592 20.1726C99.5509 19.3201 99.015 18.1459 98.9887 16.6383L98.8887 16.64ZM105.289 21.88L105.278 21.9794C108.242 22.2984 110.45 23.0647 111.915 24.2673C113.376 25.4662 114.109 27.1065 114.109 29.2H114.209H114.309C114.309 27.0535 113.555 25.3538 112.042 24.1127C110.534 22.8753 108.282 22.1016 105.299 21.7806L105.289 21.88ZM141.517 28.44V28.34H141.42L141.417 28.436L141.517 28.44ZM142.797 28.44L142.896 28.4446L142.901 28.34H142.797V28.44ZM142.357 38V38.1H142.452L142.456 38.0046L142.357 38ZM119.117 38H119.017V38.1H119.117V38ZM119.117 36.76V36.66H119.017V36.76H119.117ZM122.877 36.76V36.86H122.977V36.76H122.877ZM122.877 11.68H122.977V11.58H122.877V11.68ZM119.117 11.68H119.017V11.78H119.117V11.68ZM119.117 10.44V10.34H119.017V10.44H119.117ZM141.717 10.44L141.817 10.439L141.816 10.34H141.717V10.44ZM141.797 18.56V18.66H141.898L141.897 18.559L141.797 18.56ZM140.557 18.56L140.457 18.568L140.464 18.66H140.557V18.56ZM138.637 13.48L138.566 13.5507L138.567 13.5516L138.637 13.48ZM133.277 11.76L133.279 11.66L133.278 11.66L133.277 11.76ZM126.437 11.68L126.438 11.58L126.337 11.5788V11.68H126.437ZM126.437 23.28H126.337V23.38H126.437V23.28ZM133.877 22.28L133.953 22.3445L133.958 22.3384L133.877 22.28ZM134.797 18.56V18.46H134.697V18.56H134.797ZM136.037 18.56H136.137V18.46H136.037V18.56ZM136.037 29.64V29.74H136.137V29.64H136.037ZM134.797 29.64H134.697V29.74H134.797V29.64ZM133.797 25.96L133.716 26.0188L133.717 26.0204L133.797 25.96ZM126.437 24.64V24.54H126.337V24.64H126.437ZM126.437 36.76H126.337V36.8616L126.438 36.86L126.437 36.76ZM133.917 36.64V36.54L133.915 36.54L133.917 36.64ZM136.597 36.04L136.561 35.9464L136.561 35.9467L136.597 36.04ZM138.957 34.68L138.888 34.6068L138.886 34.6093L138.957 34.68ZM141.517 28.44V28.54H142.797V28.44V28.34H141.517V28.44ZM142.797 28.44L142.697 28.4354L142.257 37.9954L142.357 38L142.456 38.0046L142.896 28.4446L142.797 28.44ZM142.357 38V37.9H119.117V38V38.1H142.357V38ZM119.117 38H119.217V36.76H119.117H119.017V38H119.117ZM119.117 36.76V36.86H122.877V36.76V36.66H119.117V36.76ZM122.877 36.76H122.977V11.68H122.877H122.777V36.76H122.877ZM122.877 11.68V11.58H119.117V11.68V11.78H122.877V11.68ZM119.117 11.68H119.217V10.44H119.117H119.017V11.68H119.117ZM119.117 10.44V10.54H141.717V10.44V10.34H119.117V10.44ZM141.717 10.44L141.617 10.441L141.697 18.561L141.797 18.56L141.897 18.559L141.817 10.439L141.717 10.44ZM141.797 18.56V18.46H140.557V18.56V18.66H141.797V18.56ZM140.557 18.56L140.656 18.552C140.469 16.22 139.824 14.4989 138.706 13.4084L138.637 13.48L138.567 13.5516C139.636 14.5944 140.271 16.26 140.457 18.568L140.557 18.56ZM138.637 13.48L138.707 13.4093C137.587 12.2894 135.77 11.7136 133.279 11.66L133.277 11.76L133.274 11.86C135.744 11.9131 137.499 12.4839 138.566 13.5507L138.637 13.48ZM133.277 11.76L133.278 11.66L126.438 11.58L126.437 11.68L126.435 11.78L133.275 11.86L133.277 11.76ZM126.437 11.68H126.337V23.28H126.437H126.537V11.68H126.437ZM126.437 23.28V23.38H131.317V23.28V23.18H126.437V23.28ZM131.317 23.28V23.38C132.483 23.38 133.369 23.0403 133.953 22.3443L133.877 22.28L133.8 22.2157C133.265 22.8531 132.444 23.18 131.317 23.18V23.28ZM133.877 22.28L133.958 22.3384C134.588 21.461 134.897 20.1969 134.897 18.56H134.797H134.697C134.697 20.1764 134.391 21.3923 133.795 22.2216L133.877 22.28ZM134.797 18.56V18.66H136.037V18.56V18.46H134.797V18.56ZM136.037 18.56H135.937V29.64H136.037H136.137V18.56H136.037ZM136.037 29.64V29.54H134.797V29.64V29.74H136.037V29.64ZM134.797 29.64H134.897C134.897 28.0539 134.561 26.803 133.876 25.8996L133.797 25.96L133.717 26.0204C134.366 26.877 134.697 28.0795 134.697 29.64H134.797ZM133.797 25.96L133.877 25.9012C133.22 24.9975 132.365 24.54 131.317 24.54V24.64V24.74C132.295 24.74 133.093 25.1625 133.716 26.0188L133.797 25.96ZM131.317 24.64V24.54H126.437V24.64V24.74H131.317V24.64ZM126.437 24.64H126.337V36.76H126.437H126.537V24.64H126.437ZM126.437 36.76L126.438 36.86L133.918 36.74L133.917 36.64L133.915 36.54L126.435 36.66L126.437 36.76ZM133.917 36.64V36.74C134.68 36.74 135.586 36.5358 136.632 36.1333L136.597 36.04L136.561 35.9467C135.527 36.3442 134.646 36.54 133.917 36.54V36.64ZM136.597 36.04L136.632 36.1336C137.705 35.7313 138.506 35.2717 139.027 34.7507L138.957 34.68L138.886 34.6093C138.393 35.1017 137.622 35.5488 136.561 35.9464L136.597 36.04ZM138.957 34.68L139.025 34.7531C140.648 33.238 141.509 31.1308 141.616 28.444L141.517 28.44L141.417 28.436C141.311 31.0825 140.465 33.1353 138.888 34.6069L138.957 34.68Z" fill="black" mask="url(#path-3-outside-1_1271_7655)"/>
</svg>
